# This file uses centimeters as units for non-parametric coordinates.

g default
v 140.000000 -11.118338 -200.000000
v 140.000000 21.118338 -200.000000
v 140.000000 -11.118338 200.000000
v 140.000000 21.118338 200.000000
v 140.000000 -11.118338 200.000000
v 140.000000 21.118338 200.000000
v 220.000000 -11.118338 200.000000
v 220.000000 21.118338 200.000000
v 220.000000 -11.118338 200.000000
v 220.000000 21.118338 200.000000
v 220.000000 -11.118338 -200.000000
v 220.000000 21.118338 -200.000000
v 220.000000 -11.118338 -200.000000
v 220.000000 21.118338 -200.000000
v 140.000000 -11.118338 -200.000000
v 140.000000 21.118338 -200.000000
v 140.000000 -11.118338 -200.000000
v 140.000000 -11.118338 200.000000
v 220.000000 -11.118338 200.000000
v 220.000000 -11.118338 -200.000000
v 140.000000 21.118338 -200.000000
v 140.000000 21.118338 200.000000
v 220.000000 21.118338 200.000000
v 220.000000 21.118338 -200.000000
v -220.000000 -11.118338 -200.000000
v -220.000000 21.118338 -200.000000
v -220.000000 -11.118338 200.000000
v -220.000000 21.118338 200.000000
v -220.000000 -11.118338 200.000000
v -220.000000 21.118338 200.000000
v -140.000000 -11.118338 200.000000
v -140.000000 21.118338 200.000000
v -140.000000 -11.118338 200.000000
v -140.000000 21.118338 200.000000
v -140.000000 -11.118338 -200.000000
v -140.000000 21.118338 -200.000000
v -140.000000 -11.118338 -200.000000
v -140.000000 21.118338 -200.000000
v -220.000000 -11.118338 -200.000000
v -220.000000 21.118338 -200.000000
v -220.000000 -11.118338 -200.000000
v -220.000000 -11.118338 200.000000
v -140.000000 -11.118338 200.000000
v -140.000000 -11.118338 -200.000000
v -220.000000 21.118338 -200.000000
v -220.000000 21.118338 200.000000
v -140.000000 21.118338 200.000000
v -140.000000 21.118338 -200.000000
v -140.000000 0.000000 -200.000000
v -140.000000 10.000000 -200.000000
v -140.000000 0.000000 200.000000
v -140.000000 10.000000 200.000000
v -140.000000 0.000000 200.000000
v -140.000000 10.000000 200.000000
v 140.000000 0.000000 200.000000
v 140.000000 10.000000 200.000000
v 140.000000 0.000000 200.000000
v 140.000000 10.000000 200.000000
v 140.000000 0.000000 -200.000000
v 140.000000 10.000000 -200.000000
v 140.000000 0.000000 -200.000000
v 140.000000 10.000000 -200.000000
v -140.000000 0.000000 -200.000000
v -140.000000 10.000000 -200.000000
v -140.000000 0.000000 -200.000000
v -140.000000 0.000000 200.000000
v 140.000000 0.000000 200.000000
v 140.000000 0.000000 -200.000000
v -140.000000 10.000000 -200.000000
v -140.000000 10.000000 200.000000
v 140.000000 10.000000 200.000000
v 140.000000 10.000000 -200.000000
vt 0.517253 0.664684
vt 0.991139 0.676274
vt 0.990205 0.714465
vt 0.516319 0.702875
vt 0.581842 0.076862
vt 0.667009 0.035212
vt 0.683792 0.069531
vt 0.598625 0.111180
vt 0.495094 0.329117
vt 0.914277 0.107784
vt 0.932114 0.141567
vt 0.512932 0.362900
vt 0.784117 0.599881
vt 0.869284 0.558231
vt 0.886067 0.592550
vt 0.800900 0.634199
vt 0.987809 0.825168
vt 0.987809 0.919974
vt 0.513781 0.919974
vt 0.513781 0.825168
vt 0.954065 0.336560
vt 0.472890 0.383040
vt 0.926620 0.245814
vt 0.500335 0.473786
vt 0.518238 0.760044
vt 0.992257 0.757094
vt 0.992494 0.795296
vt 0.518476 0.798246
vt 0.879580 0.613073
vt 0.964747 0.571423
vt 0.981530 0.605742
vt 0.896363 0.647391
vt 0.491824 0.607632
vt 0.947484 0.476956
vt 0.958015 0.513679
vt 0.502355 0.644355
vt 0.895113 0.194640
vt 0.980280 0.152990
vt 0.997063 0.187309
vt 0.911896 0.228959
vt 0.479307 0.818767
vt 0.479307 0.913573
vt 0.005279 0.913573
vt 0.005279 0.818767
vt 0.959695 0.455481
vt 0.478519 0.501961
vt 0.932250 0.364735
vt 0.505964 0.592707
vt 0.558098 0.246245
vt 0.977922 0.026131
vt 0.983424 0.036627
vt 0.563601 0.256741
vt 0.579979 0.194939
vt 0.852095 0.005051
vt 0.858876 0.014769
vt 0.586761 0.204658
vt 0.569357 0.256675
vt 0.989181 0.036560
vt 0.994684 0.047056
vt 0.574860 0.267170
vt 0.608128 0.194939
vt 0.880243 0.005051
vt 0.887024 0.014769
vt 0.614909 0.204658
vt 0.474028 0.423475
vt 0.474028 0.755294
vt 0.000000 0.755294
vt 0.000000 0.423475
vt 0.480156 0.348877
vt 0.005744 0.017606
vt 0.479772 0.017058
vt 0.006129 0.349425
vn -1.000000 0.000000 0.000000
vn -1.000000 0.000000 0.000000
vn -1.000000 0.000000 0.000000
vn -1.000000 0.000000 0.000000
vn 0.000000 0.000000 1.000000
vn 0.000000 0.000000 1.000000
vn 0.000000 0.000000 1.000000
vn 0.000000 0.000000 1.000000
vn 1.000000 0.000000 0.000000
vn 1.000000 0.000000 0.000000
vn 1.000000 0.000000 0.000000
vn 1.000000 0.000000 0.000000
vn 0.000000 0.000000 -1.000000
vn 0.000000 0.000000 -1.000000
vn 0.000000 0.000000 -1.000000
vn 0.000000 0.000000 -1.000000
vn 0.000000 -1.000000 0.000000
vn 0.000000 -1.000000 0.000000
vn 0.000000 -1.000000 0.000000
vn 0.000000 -1.000000 0.000000
vn 0.000000 -1.000000 0.000000
vn 0.000000 -1.000000 0.000000
vn 0.000000 1.000000 0.000000
vn 0.000000 1.000000 0.000000
vn 0.000000 1.000000 0.000000
vn 0.000000 1.000000 0.000000
vn 0.000000 1.000000 0.000000
vn 0.000000 1.000000 0.000000
vn -1.000000 0.000000 0.000000
vn -1.000000 0.000000 0.000000
vn -1.000000 0.000000 0.000000
vn -1.000000 0.000000 0.000000
vn 0.000000 0.000000 1.000000
vn 0.000000 0.000000 1.000000
vn 0.000000 0.000000 1.000000
vn 0.000000 0.000000 1.000000
vn 1.000000 0.000000 0.000000
vn 1.000000 0.000000 0.000000
vn 1.000000 0.000000 0.000000
vn 1.000000 0.000000 0.000000
vn 0.000000 0.000000 -1.000000
vn 0.000000 0.000000 -1.000000
vn 0.000000 0.000000 -1.000000
vn 0.000000 0.000000 -1.000000
vn 0.000000 -1.000000 0.000000
vn 0.000000 -1.000000 0.000000
vn 0.000000 -1.000000 0.000000
vn 0.000000 -1.000000 0.000000
vn 0.000000 -1.000000 0.000000
vn 0.000000 -1.000000 0.000000
vn 0.000000 1.000000 0.000000
vn 0.000000 1.000000 0.000000
vn 0.000000 1.000000 0.000000
vn 0.000000 1.000000 0.000000
vn 0.000000 1.000000 0.000000
vn 0.000000 1.000000 0.000000
vn -1.000000 0.000000 0.000000
vn -1.000000 0.000000 0.000000
vn -1.000000 0.000000 0.000000
vn -1.000000 0.000000 0.000000
vn 0.000000 0.000000 1.000000
vn 0.000000 0.000000 1.000000
vn 0.000000 0.000000 1.000000
vn 0.000000 0.000000 1.000000
vn 1.000000 0.000000 0.000000
vn 1.000000 0.000000 0.000000
vn 1.000000 0.000000 0.000000
vn 1.000000 0.000000 0.000000
vn 0.000000 0.000000 -1.000000
vn 0.000000 0.000000 -1.000000
vn 0.000000 0.000000 -1.000000
vn 0.000000 0.000000 -1.000000
vn 0.000000 -1.000000 0.000000
vn 0.000000 -1.000000 0.000000
vn 0.000000 -1.000000 0.000000
vn 0.000000 -1.000000 0.000000
vn 0.000000 -1.000000 0.000000
vn 0.000000 -1.000000 0.000000
vn 0.000000 1.000000 0.000000
vn 0.000000 1.000000 0.000000
vn 0.000000 1.000000 0.000000
vn 0.000000 1.000000 0.000000
vn 0.000000 1.000000 0.000000
vn 0.000000 1.000000 0.000000
s off
g initialShadingGroup Mesh
f 1/1/1 3/2/2 4/3/3 2/4/4
f 5/5/5 7/6/6 8/7/7 6/8/8
f 9/9/9 11/10/10 12/11/11 10/12/12
f 13/13/13 15/14/14 16/15/15 14/16/16
f 19/17/17 18/18/18 17/19/19
f 17/19/20 20/20/21 19/17/22
f 23/21/23 21/22/24 22/23/25
f 21/22/26 23/21/27 24/24/28
f 25/25/29 27/26/30 28/27/31 26/28/32
f 29/29/33 31/30/34 32/31/35 30/32/36
f 33/33/37 35/34/38 36/35/39 34/36/40
f 37/37/41 39/38/42 40/39/43 38/40/44
f 43/41/45 42/42/46 41/43/47
f 41/43/48 44/44/49 43/41/50
f 47/45/51 45/46/52 46/47/53
f 45/46/54 47/45/55 48/48/56
f 49/49/57 51/50/58 52/51/59 50/52/60
f 53/53/61 55/54/62 56/55/63 54/56/64
f 57/57/65 59/58/66 60/59/67 58/60/68
f 61/61/69 63/62/70 64/63/71 62/64/72
f 67/65/73 66/66/74 65/67/75
f 65/67/76 68/68/77 67/65/78
f 71/69/79 69/70/80 70/71/81
f 69/70/82 71/69/83 72/72/84
