# This file uses centimeters as units for non-parametric coordinates.

mtllib MouseTrap.mtl
g default
v -0.500000 -0.055957 0.029958
v -0.430702 -0.055957 0.029958
v -0.430702 -0.055957 1.012910
v -0.500000 -0.055957 1.012910
v 0.395833 0.055957 -0.041193
v 0.395833 0.055957 -0.064225
v -0.375597 0.055957 -0.064225
v -0.375597 0.055957 -0.041193
v -0.500000 0.055957 1.012910
v -0.500000 0.055957 0.029958
v 0.395833 0.055957 -0.797496
v 0.395833 0.078137 -0.085234
v 0.395833 0.079121 -0.797496
v -0.375597 0.078076 -0.041193
v 0.395833 0.078076 -0.041193
v 0.445915 0.078137 -0.085234
v 0.445915 0.079121 -0.797496
v -0.375597 -0.055957 0.029958
v -0.375597 -0.055957 1.012910
v 0.500000 0.055957 -0.064225
v 0.500000 -0.055957 -0.064225
v 0.500000 -0.055957 -0.797496
v 0.500000 0.055957 -0.797496
v -0.375597 0.122428 -0.041193
v 0.395833 0.122428 -0.041193
v 0.445915 0.055957 -0.064225
v 0.445915 0.055957 -0.797496
v -0.375597 0.078076 0.029958
v -0.375597 0.055957 0.029958
v 0.395833 0.055957 0.029958
v 0.395833 0.078076 0.029958
v -0.430702 0.055957 1.012910
v -0.430702 0.055957 0.029958
v -0.375597 0.122428 0.029958
v 0.395833 0.122428 0.029958
v -0.375597 0.055957 1.012910
v 0.395833 -0.055957 -0.041193
v 0.395833 -0.055957 -0.064225
v 0.445915 -0.055957 -0.064225
v 0.445915 -0.055957 -0.041193
v 0.395833 -0.055957 0.029958
v 0.445915 -0.055957 0.029958
v 0.500000 -0.055957 -0.041193
v 0.500000 -0.055957 0.029958
v 0.445915 0.078076 -0.041193
v 0.500000 0.055957 -0.041193
v 0.252318 0.231220 0.373891
v 0.228642 0.231220 0.247235
v -0.098296 0.231220 0.373891
v 0.445915 0.055957 -0.041193
v 0.395833 -0.055957 1.012910
v 0.445915 0.122428 -0.041193
v 0.500000 0.055957 0.029958
v 0.500000 0.078076 -0.041193
v 0.228642 0.231220 0.500548
v 0.445915 0.055957 0.029958
v 0.445915 0.078076 0.029958
v 0.160811 0.231220 0.610098
v 0.057986 0.231220 0.687748
v 0.500000 0.122428 -0.041193
v 0.445915 0.122428 0.029958
v 0.500000 0.078076 0.029958
v -0.098296 0.055957 0.373891
v 0.228642 0.055957 0.247235
v 0.500000 0.122428 0.029958
v 0.057986 0.055957 0.687748
v 0.252318 0.055957 0.373891
v 0.228642 0.055957 0.500548
v 0.445915 -0.055957 1.012910
v 0.500000 -0.055957 1.012910
v 0.160811 0.055957 0.610098
v 0.395833 0.055957 1.012910
v 0.445915 0.055957 1.012910
v 0.500000 0.055957 1.012910
v 0.445915 -0.055957 -0.797496
v -0.375597 -0.055957 -0.041193
v 0.395833 -0.055957 -0.797496
v -0.375597 -0.055957 -0.064225
v -0.430702 0.122428 0.029958
v -0.430702 0.078076 0.029958
v -0.430702 0.122428 -0.041193
v 0.445915 0.055957 -0.865599
v 0.500000 0.055957 -0.865599
v 0.445915 0.079121 -0.865599
v 0.500000 -0.055957 -0.865599
v 0.395833 0.079121 -0.865599
v -0.500000 0.078076 0.029958
v -0.500000 0.122428 0.029958
v -0.430702 0.078076 -0.041193
v -0.500000 0.122428 -0.041193
v -0.375597 0.055957 -0.797496
v -0.375597 0.078137 -0.085234
v 0.395833 0.055957 -0.865599
v -0.430702 0.078137 -0.085234
v -0.500000 0.078076 -0.041193
v 0.445915 0.055957 -1.012910
v 0.500000 0.055957 -1.012910
v 0.445915 -0.055957 -0.865599
v -0.430702 0.055957 -0.064225
v -0.430702 0.055957 -0.041193
v -0.500000 0.055957 -0.041193
v 0.500000 -0.055957 -1.012910
v -0.500000 0.055957 -0.064225
v 0.395833 0.055957 -1.012910
v -0.430702 -0.055957 -0.041193
v 0.395833 -0.055957 -0.865599
v -0.375597 -0.055957 -0.797496
v -0.500000 -0.055957 -0.041193
v -0.430702 -0.055957 -0.064225
v 0.445915 -0.055957 -1.012910
v -0.500000 -0.055957 -0.064225
v 0.395833 -0.055957 -1.012910
v -0.375597 0.079121 -0.797496
v -0.375597 0.079121 -0.865599
v -0.430702 0.079121 -0.797496
v -0.375597 0.055957 -0.865599
v -0.430702 0.055957 -0.797496
v -0.500000 0.055957 -0.797496
v -0.375597 0.055957 -1.012910
v -0.375597 -0.055957 -0.865599
v -0.430702 -0.055957 -0.797496
v -0.500000 -0.055957 -0.797496
v -0.375597 -0.055957 -1.012910
v -0.430702 0.079121 -0.865599
v -0.430702 0.055957 -0.865599
v -0.500000 0.055957 -0.865599
v -0.430702 0.055957 -1.012910
v -0.430702 -0.055957 -0.865599
v -0.500000 -0.055957 -0.865599
v -0.500000 0.055957 -1.012910
v -0.430702 -0.055957 -1.012910
v -0.500000 -0.055957 -1.012910
vt 0.375000 0.878697
vt 0.392325 0.878697
vt 0.392325 1.000000
vt 0.375000 1.000000
vt 0.598953 0.380120
vt 0.598953 0.382961
vt 0.406107 0.383099
vt 0.406108 0.380262
vt 0.253697 0.000000
vt 0.375000 0.000000
vt 0.375000 0.250000
vt 0.253697 0.250000
vt 0.598958 0.473416
vt 0.599054 0.385543
vt 0.598958 0.473417
vt 0.406064 0.380123
vt 0.598999 0.380105
vt 0.611384 0.385537
vt 0.611479 0.473417
vt 0.406101 0.878697
vt 0.406101 1.000000
vt 0.757926 0.250000
vt 0.757926 0.000000
vt 0.848416 0.000000
vt 0.848416 0.250000
vt 0.406101 0.380083
vt 0.598958 0.380083
vt 0.611570 0.382937
vt 0.611479 0.473417
vt 0.625000 0.382926
vt 0.625000 0.473417
vt 0.406101 0.371303
vt 0.406101 0.371303
vt 0.598958 0.371303
vt 0.598958 0.371303
vt 0.392325 0.250000
vt 0.392325 0.371303
vt 0.375000 0.371303
vt 0.406101 0.371303
vt 0.598958 0.371303
vt 0.406101 0.250000
vt 0.598958 0.869917
vt 0.598958 0.867074
vt 0.611479 0.867074
vt 0.611479 0.869917
vt 0.598958 0.878697
vt 0.611479 0.878697
vt 0.625000 0.867074
vt 0.625000 0.869917
vt 0.625000 0.878697
vt 0.611460 0.380093
vt 0.755084 0.250000
vt 0.755084 0.000000
vt 0.656250 0.843750
vt 0.635350 0.793847
vt 0.500000 0.843750
vt 0.611573 0.380095
vt 0.598958 1.000000
vt 0.625000 0.380083
vt 0.611479 0.380083
vt 0.746303 0.250000
vt 0.746303 0.000000
vt 0.625000 0.380083
vt 0.645699 0.787306
vt 0.611479 0.371303
vt 0.611479 0.371303
vt 0.615470 0.738485
vt 0.567912 0.695690
vt 0.625000 0.380083
vt 0.611479 0.371303
vt 0.392325 0.000000
vt 0.625000 0.371303
vt 0.625000 0.371303
vt 0.500000 0.166301
vt 0.635350 0.214745
vt 0.625000 0.371303
vt 0.406101 0.000000
vt 0.567912 0.310032
vt 0.610294 0.687500
vt 0.610294 0.317983
vt 0.595588 0.687500
vt 0.595588 0.317983
vt 0.611479 1.000000
vt 0.625000 1.000000
vt 0.580883 0.687500
vt 0.580883 0.317983
vt 0.598958 0.250000
vt 0.611479 0.250000
vt 0.625000 0.000000
vt 0.625000 0.250000
vt 0.598958 0.000000
vt 0.611479 0.000000
vt 0.514497 0.290127
vt 0.475426 0.328859
vt 0.557160 0.344489
vt 0.611479 0.776583
vt 0.625000 0.776583
vt 0.406101 0.869917
vt 0.598958 0.776583
vt 0.406101 0.867074
vt 0.392325 0.371303
vt 0.392325 0.371303
vt 0.392325 0.380083
vt 0.611479 0.481821
vt 0.625000 0.481821
vt 0.611479 0.481821
vt 0.856821 0.000000
vt 0.856821 0.250000
vt 0.598958 0.481821
vt 0.375000 0.371303
vt 0.375000 0.371303
vt 0.392343 0.380093
vt 0.375000 0.380083
vt 0.406101 0.473416
vt 0.406014 0.385564
vt 0.598958 0.481821
vt 0.392413 0.385537
vt 0.375000 0.380083
vt 0.611479 0.500000
vt 0.625000 0.500000
vt 0.611479 0.768179
vt 0.625000 0.768179
vt 0.392253 0.382937
vt 0.392251 0.380095
vt 0.375000 0.380083
vt 0.875000 0.000000
vt 0.875000 0.250000
vt 0.375000 0.382926
vt 0.598958 0.500000
vt 0.392325 0.869917
vt 0.598958 0.768179
vt 0.406101 0.776583
vt 0.244916 0.000000
vt 0.244917 0.250000
vt 0.392325 0.867074
vt 0.611479 0.750000
vt 0.625000 0.750000
vt 0.375000 0.869917
vt 0.242074 0.250000
vt 0.242074 0.000000
vt 0.375000 0.867074
vt 0.598958 0.750000
vt 0.406101 0.473417
vt 0.406101 0.481821
vt 0.392325 0.473417
vt 0.406101 0.481821
vt 0.392325 0.473417
vt 0.375000 0.473417
vt 0.406101 0.500000
vt 0.406101 0.768179
vt 0.392325 0.776583
vt 0.151583 0.000000
vt 0.151583 0.250000
vt 0.375000 0.776583
vt 0.406101 0.750000
vt 0.392325 0.481821
vt 0.392325 0.481821
vt 0.375000 0.481821
vt 0.392325 0.500000
vt 0.392325 0.768179
vt 0.143179 0.000000
vt 0.143179 0.250000
vt 0.375000 0.500000
vt 0.375000 0.768179
vt 0.392325 0.750000
vt 0.125000 0.000000
vt 0.125000 0.250000
vt 0.375000 0.750000
vn 0.000000 -1.000000 0.000000
vn 0.000000 -1.000000 0.000000
vn 0.000000 -1.000000 0.000000
vn 0.000000 -1.000000 0.000000
vn 0.000000 1.000000 0.000000
vn 0.000000 1.000000 0.000000
vn 0.000000 1.000000 0.000000
vn 0.000000 1.000000 0.000000
vn -1.000000 0.000000 0.000000
vn -1.000000 0.000000 0.000000
vn -1.000000 0.000000 0.000000
vn -1.000000 0.000000 0.000000
vn -1.000000 0.000000 0.000000
vn -1.000000 0.000000 0.000000
vn -1.000000 0.000000 0.000000
vn -1.000000 0.000000 0.000000
vn 0.000000 0.000000 -1.000000
vn 0.000000 0.000000 -1.000000
vn 0.000000 0.000000 -1.000000
vn 0.000000 0.000000 -1.000000
vn 0.000000 1.000000 0.000538
vn 0.000000 0.999999 0.001382
vn 0.000000 0.999999 0.001382
vn 0.000000 0.999999 0.001261
vn 0.000000 -1.000000 0.000000
vn 0.000000 -1.000000 0.000000
vn 1.000000 0.000000 0.000000
vn 1.000000 0.000000 0.000000
vn 1.000000 0.000000 0.000000
vn 1.000000 0.000000 0.000000
vn 0.000000 0.000000 -1.000000
vn 0.000000 0.000000 -1.000000
vn 1.000000 0.000000 0.000000
vn 1.000000 0.000000 0.000000
vn 1.000000 0.000000 0.000000
vn 1.000000 0.000000 0.000000
vn 0.000000 1.000000 0.000000
vn 0.000000 1.000000 0.000000
vn 0.000000 1.000000 0.000000
vn 0.000000 1.000000 0.000000
vn 0.000000 -0.000000 1.000000
vn 0.000000 0.000000 1.000000
vn 0.000000 0.000000 1.000000
vn 0.000000 0.000000 1.000000
vn 0.000000 1.000000 0.000000
vn 0.000000 1.000000 0.000000
vn 0.000000 1.000000 0.000000
vn 0.000000 1.000000 0.000000
vn 0.000000 1.000000 0.000000
vn 0.000000 1.000000 0.000000
vn 0.000000 1.000000 0.000000
vn 0.000000 1.000000 0.000000
vn 0.000000 -0.000000 1.000000
vn 0.000000 -0.000000 1.000000
vn 0.000000 1.000000 0.000000
vn 0.000000 1.000000 0.000000
vn 0.000000 -1.000000 0.000000
vn 0.000000 -1.000000 0.000000
vn 0.000000 -1.000000 0.000000
vn 0.000000 -1.000000 0.000000
vn 0.000000 -1.000000 0.000000
vn 0.000000 -1.000000 0.000000
vn 0.000000 -1.000000 0.000000
vn 0.000000 -1.000000 0.000000
vn -1.000000 0.000000 0.000000
vn -1.000000 0.000000 0.000000
vn 0.000000 -1.000000 0.000000
vn 0.000000 0.999999 0.001382
vn 0.000000 0.999999 0.001382
vn 1.000000 0.000000 0.000000
vn 1.000000 0.000000 0.000000
vn 0.000000 1.000000 0.000000
vn 0.000000 1.000000 -0.000000
vn 0.000000 1.000000 0.000000
vn 1.000000 0.000000 0.000000
vn 1.000000 0.000000 0.000000
vn 0.000000 -1.000000 0.000000
vn 0.000000 1.000000 0.000000
vn 0.000000 1.000000 0.000000
vn 0.000000 0.000000 -1.000000
vn 0.000000 0.000000 -1.000000
vn 1.000000 0.000000 0.000000
vn 1.000000 0.000000 0.000000
vn 0.000000 0.000000 -1.000000
vn 0.000000 0.000000 -1.000000
vn 0.000000 0.000000 -1.000000
vn 0.000000 1.000000 0.000000
vn 0.000000 0.000000 1.000000
vn 0.000000 0.000000 1.000000
vn 0.000000 1.000000 -0.000000
vn 0.000000 1.000000 0.000000
vn 0.000000 0.000000 -1.000000
vn 0.000000 1.000000 0.000000
vn 0.000000 1.000000 0.000000
vn 0.000000 0.000000 1.000000
vn 0.000000 0.000000 1.000000
vn 0.000000 0.000000 1.000000
vn 0.000000 0.000000 1.000000
vn 0.000000 -0.000000 1.000000
vn 1.000000 0.000000 0.000000
vn 1.000000 0.000000 0.000000
vn 0.000000 0.000000 1.000000
vn 0.000000 0.000000 1.000000
vn -0.361242 0.000000 -0.932472
vn -0.361242 0.000000 -0.932472
vn -0.361242 0.000000 -0.932472
vn -0.361242 0.000000 -0.932472
vn 0.000000 1.000000 0.000000
vn 0.000000 1.000000 0.000000
vn 1.000000 0.000000 0.000000
vn 1.000000 0.000000 0.000000
vn 0.000000 -0.000000 1.000000
vn 0.000000 0.000000 1.000000
vn 0.000000 0.000000 1.000000
vn -0.895163 0.000000 0.445738
vn -0.895163 0.000000 0.445738
vn -0.895163 0.000000 0.445738
vn -0.895163 0.000000 0.445738
vn 0.982973 0.000000 -0.183750
vn 0.982973 0.000000 -0.183750
vn 1.000000 0.000000 0.000000
vn 1.000000 0.000000 0.000000
vn 0.932472 0.000000 0.361242
vn 0.932472 0.000000 0.361242
vn 0.000000 -1.000000 0.000000
vn 0.000000 -1.000000 0.000000
vn 0.739009 0.000000 0.673696
vn 0.739009 0.000000 0.673696
vn 0.602635 0.000000 0.798017
vn 0.602635 0.000000 0.798017
vn 0.000000 1.000000 0.000000
vn 0.000000 1.000000 0.000000
vn 0.000000 1.000000 0.000000
vn 0.000000 1.000000 0.000000
vn 1.000000 0.000000 0.000000
vn 1.000000 0.000000 0.000000
vn 0.000000 0.000000 1.000000
vn 0.000000 0.000000 1.000000
vn 0.000000 1.000000 0.000000
vn 0.000000 1.000000 0.000000
vn 0.000000 0.000000 1.000000
vn 0.000000 0.000000 1.000000
vn 0.000000 0.000000 1.000000
vn 0.000000 0.000000 1.000000
vn 0.000000 1.000000 0.000000
vn 0.000000 1.000000 0.000000
vn 0.000000 1.000000 0.000000
vn 0.000000 1.000000 0.000000
vn 0.000000 1.000000 0.000000
vn 0.000000 -1.000000 0.000000
vn 0.000000 -1.000000 0.000000
vn 0.000000 -1.000000 0.000000
vn 0.000000 -1.000000 0.000000
vn 0.000000 -1.000000 0.000000
vn 0.000000 -0.000000 1.000000
vn 0.000000 0.000000 1.000000
vn 0.000000 1.000000 0.000000
vn 0.000000 1.000000 0.000000
vn 0.000000 1.000000 0.000000
vn 0.000000 1.000000 0.000000
vn 0.000000 0.000000 1.000000
vn 1.000000 0.000000 0.000000
vn 1.000000 0.000000 0.000000
vn 1.000000 0.000000 0.000000
vn 1.000000 0.000000 0.000000
vn 0.000000 1.000000 0.000000
vn 0.000000 1.000000 0.000000
vn 0.000000 0.000000 1.000000
vn 0.000000 -0.000000 1.000000
vn -0.000000 0.000000 -1.000000
vn -0.000000 0.000000 -1.000000
vn 0.000000 1.000000 0.000000
vn 0.000000 1.000000 0.000000
vn 0.000000 1.000000 0.000000
vn 0.000000 1.000000 0.000000
vn 1.000000 0.000000 0.000000
vn 1.000000 0.000000 0.000000
vn 1.000000 0.000000 0.000000
vn 1.000000 0.000000 0.000000
vn 0.000000 0.000000 1.000000
vn 0.000000 0.000000 -1.000000
vn 0.000000 0.000000 -1.000000
vn 0.000000 0.000000 -1.000000
vn 0.000000 0.000000 -1.000000
vn 0.000000 0.999999 0.001382
vn 0.000000 0.999999 0.001382
vn 0.000000 0.999999 0.001382
vn 0.000000 0.999999 0.001382
vn -1.000000 0.000000 0.000000
vn -1.000000 0.000000 0.000000
vn -1.000000 0.000000 0.000000
vn -1.000000 0.000000 0.000000
vn 0.000000 0.000000 -1.000000
vn 0.000000 0.000000 -1.000000
vn 0.000000 1.000000 0.000000
vn 0.000000 1.000000 0.000000
vn 0.000000 -1.000000 0.000000
vn 0.000000 -1.000000 0.000000
vn -1.000000 0.000000 -0.000000
vn -1.000000 0.000000 0.000000
vn -1.000000 0.000000 0.000000
vn -1.000000 0.000000 0.000000
vn -1.000000 0.000000 0.000000
vn 1.000000 0.000000 0.000000
vn 1.000000 0.000000 0.000000
vn 0.000000 0.000000 -1.000000
vn 0.000000 0.000000 -1.000000
vn 0.000000 1.000000 0.000000
vn 0.000000 1.000000 0.000000
vn 0.000000 1.000000 0.000000
vn 0.000000 1.000000 0.000000
vn 0.000000 1.000000 0.000000
vn 0.000000 1.000000 0.000000
vn 0.000000 -1.000000 0.000000
vn 0.000000 -1.000000 0.000000
vn 0.000000 -1.000000 0.000000
vn -1.000000 0.000000 0.000000
vn 0.000000 -1.000000 0.000000
vn 0.000000 -1.000000 0.000000
vn 0.000000 -1.000000 0.000000
vn 0.000000 -1.000000 0.000000
vn 0.000000 0.000000 -1.000000
vn 0.000000 0.000000 -1.000000
vn 0.000000 0.000000 -1.000000
vn 0.000000 0.000000 -1.000000
vn -1.000000 0.000000 0.000000
vn -1.000000 0.000000 0.000000
vn 0.000000 -1.000000 0.000000
vn 0.000000 -1.000000 0.000000
vn 0.000000 0.000000 -1.000000
vn 0.000000 0.000000 -1.000000
vn 0.000000 0.000000 1.000000
vn 0.000000 0.000000 1.000000
vn 0.000000 0.000000 1.000000
vn 0.000000 0.000000 1.000000
vn 0.000000 1.000000 0.000000
vn 0.000000 1.000000 0.000568
vn 1.000000 0.000000 0.000000
vn 1.000000 0.000000 0.000000
vn 0.000000 0.999999 0.001261
vn 0.000000 0.000000 -1.000000
vn 0.000000 0.000000 -1.000000
vn -1.000000 0.000000 -0.000000
vn -1.000000 0.000000 -0.000000
vn 0.000000 1.000000 0.000000
vn 0.000000 1.000000 0.000000
vn 0.000000 1.000000 0.000000
vn 0.000000 1.000000 0.000000
vn 0.000000 -1.000000 0.000000
vn 0.000000 -1.000000 0.000000
vn -1.000000 0.000000 0.000000
vn -1.000000 0.000000 0.000000
vn 0.000000 -1.000000 0.000000
vn 0.000000 -1.000000 0.000000
vn 0.000000 0.000000 -1.000000
vn 0.000000 0.000000 -1.000000
vn 0.000000 1.000000 0.000000
vn -1.000000 0.000000 0.000000
vn -1.000000 0.000000 0.000000
vn 0.000000 0.000000 -1.000000
vn 0.000000 0.000000 -1.000000
vn 0.000000 1.000000 0.000000
vn 0.000000 1.000000 0.000000
vn 0.000000 1.000000 0.000000
vn 0.000000 -1.000000 0.000000
vn -1.000000 0.000000 0.000000
vn -1.000000 0.000000 0.000000
vn 0.000000 1.000000 0.000000
vn 0.000000 -1.000000 0.000000
vn 0.000000 -1.000000 0.000000
vn 0.000000 0.000000 -1.000000
vn 0.000000 0.000000 -1.000000
vn -1.000000 0.000000 0.000000
vn -1.000000 0.000000 0.000000
vn 0.000000 -1.000000 0.000000
vn 0.000000 0.000000 -1.000000
vn 0.000000 0.000000 -1.000000
vn 0.000000 1.000000 0.000000
vn 0.000000 1.000000 0.000000
vn 0.000000 1.000000 0.000000
vn 0.000000 1.000000 0.000000
vn 0.000000 1.000000 0.000000
vn 0.000000 1.000000 0.000000
vn 0.000000 1.000000 0.000000
s 1
g polySurface1
usemtl initialShadingGroup
f 1/1/1 2/2/2 3/3/3 4/4/4
s 2
f 5/5/5 6/6/6 7/7/7 8/8/8
s 3
f 1/9/9 4/10/10 9/11/11 10/12/12
s 4
f 11/13/13 6/6/14 12/14/15 13/15/16
s 5
f 5/5/17 8/8/18 14/16/19 15/17/20
s 6
f 13/15/21 12/14/22 16/18/23 17/19/24
s 1
f 3/3/3 2/2/2 18/20/25 19/21/26
s 7
f 20/22/27 21/23/28 22/24/29 23/25/30
s 5
f 15/17/20 14/16/19 24/26/31 25/27/32
s 8
f 16/18/33 26/28/34 27/29/35 17/19/36
s 9
f 20/30/37 23/31/38 27/29/39 26/28/40
s 10
f 28/32/41 29/33/42 30/34/43 31/35/44
s 11
f 9/11/45 32/36/46 33/37/47 10/38/48
s 12
f 24/26/49 34/39/50 35/40/51 25/27/52
s 10
f 34/39/53 28/32/41 31/35/44 35/40/54
s 11
f 33/37/47 32/36/46 36/41/55 29/33/56
s 1
f 37/42/57 38/43/58 39/44/59 40/45/60
f 41/46/61 37/42/57 40/45/60 42/47/62
f 40/45/60 39/44/59 21/48/63 43/49/64
s 4
f 12/14/15 6/6/14 5/5/65 15/17/66
s 1
f 42/47/62 40/45/60 43/49/64 44/50/67
s 6
f 16/18/23 12/14/22 15/17/68 45/51/69
s 7
f 46/52/70 43/53/71 21/23/28 20/22/27
s 14
f 47/54/72 48/55/73 49/56/74
s 8
f 50/57/75 26/28/34 16/18/33 45/51/76
s 1
f 19/21/26 18/20/25 41/46/61 51/58/77
s 9
f 20/30/37 26/28/40 50/57/78 46/59/79
s 5
f 45/51/80 15/17/20 25/27/32 52/60/81
s 7
f 53/61/82 44/62/83 43/53/71 46/52/70
s 5
f 46/59/84 50/57/85 45/51/80 54/63/86
s 14
f 55/64/87 47/54/72 49/56/74
s 10
f 31/35/44 30/34/43 56/65/88 57/66/89
s 14
f 58/67/90 55/64/87 49/56/74
f 59/68/91 58/67/90 49/56/74
s 5
f 54/63/86 45/51/80 52/60/81 60/69/92
s 12
f 25/27/52 35/40/51 61/70/93 52/60/94
s 15
f 4/10/95 3/71/96 32/36/97 9/11/98
s 10
f 35/40/54 31/35/44 57/66/89 61/70/99
s 7
f 53/72/82 46/59/70 54/63/100 62/73/101
s 10
f 57/66/89 56/65/88 53/72/102 62/73/103
s off
f 63/74/104 49/56/105 48/55/106 64/75/107
s 12
f 52/60/94 61/70/93 65/76/108 60/69/109
s 7
f 62/73/101 54/63/100 60/69/110 65/76/111
s 10
f 61/70/99 57/66/89 62/73/103 65/76/112
s 15
f 32/36/97 3/71/96 19/77/113 36/41/114
s off
f 66/78/115 59/68/116 49/56/117 63/74/118
s 16
f 64/75/119 48/55/120 47/79/121 67/80/122
f 67/80/122 47/79/121 55/81/123 68/82/124
s 1
f 51/58/77 41/46/61 42/47/62 69/83/125
f 69/83/125 42/47/62 44/50/67 70/84/126
s 16
f 68/82/124 55/81/123 58/85/127 71/86/128
f 71/86/128 58/85/127 59/68/129 66/78/130
s 17
f 30/34/131 72/87/132 73/88/133 56/65/134
s 7
f 70/89/135 44/62/83 53/61/82 74/90/136
s 15
f 36/41/114 19/77/113 51/91/137 72/87/138
s 17
f 56/65/134 73/88/133 74/90/139 53/72/140
s 15
f 72/87/138 51/91/137 69/92/141 73/88/142
f 73/88/142 69/92/141 70/89/143 74/90/144
s 11
f 29/33/56 36/41/55 72/87/145 66/93/146 63/94/147 64/95/148 30/34/149
s 1
f 39/44/59 75/96/150 22/97/151 21/48/63
f 18/20/25 76/98/152 37/42/57 41/46/61
f 38/43/58 77/99/153 75/96/150 39/44/59
f 76/98/152 78/100/154 38/43/58 37/42/57
s 10
f 79/101/155 80/102/156 28/32/41 34/39/53
s 12
f 81/103/157 79/101/158 34/39/50 24/26/49
s 9
f 82/104/159 27/29/39 23/31/38 83/105/160
s 10
f 80/102/156 33/37/161 29/33/42 28/32/41
s 8
f 27/29/35 82/104/162 84/106/163 17/19/36
s 7
f 23/25/30 22/24/29 85/107/164 83/108/165
s 6
f 86/109/166 13/15/21 17/19/24 84/106/167
s 10
f 87/110/168 80/102/156 79/101/155 88/111/169
s 5
f 14/16/19 89/112/170 81/103/171 24/26/31
s 12
f 88/111/172 79/101/158 81/103/157 90/113/173
s 2
f 7/7/7 6/6/6 11/13/174 91/114/175
s 18
f 8/8/176 7/7/177 92/115/178 14/16/179
s 10
f 10/38/180 33/37/161 80/102/156 87/110/168
s 19
f 82/104/181 93/116/182 86/109/183 84/106/184
s 6
f 92/115/185 94/117/186 89/112/187 14/16/188
s 3
f 95/118/189 87/110/190 88/111/191 90/113/192
s 5
f 89/112/170 95/118/193 90/113/194 81/103/171
s 9
f 96/119/195 82/104/159 83/105/160 97/120/196
s 1
f 75/96/150 98/121/197 85/122/198 22/97/151
s 22
f 94/117/199 99/123/200 100/124/201 89/112/202
s 3
f 101/125/203 10/38/12 87/110/190 95/118/189
s 7
f 83/108/165 85/107/164 102/126/204 97/127/205
s 5
f 100/124/206 101/125/207 95/118/193 89/112/170
s 9
f 100/124/208 99/123/209 103/128/210 101/125/211
f 104/129/212 93/116/213 82/104/159 96/119/195
s 1
f 2/2/2 105/130/214 76/98/152 18/20/25
f 77/99/153 106/131/215 98/121/197 75/96/150
f 78/100/154 107/132/216 77/99/153 38/43/58
s 3
f 108/133/217 1/9/9 10/12/12 101/134/203
s 1
f 105/130/214 109/135/218 78/100/154 76/98/152
f 98/121/197 110/136/219 102/137/220 85/122/198
f 108/138/221 105/130/214 2/2/2 1/1/1
s 24
f 96/119/222 97/120/223 102/137/224 110/136/225
s 3
f 103/139/226 111/140/227 108/133/217 101/134/203
s 1
f 111/141/228 109/135/218 105/130/214 108/138/221
f 106/131/215 112/142/229 110/136/219 98/121/197
s 24
f 104/129/230 96/119/222 110/136/225 112/142/231
s off
f 91/114/232 11/13/233 13/15/234 113/143/235
s 6
f 114/144/236 113/143/237 13/15/21 86/109/166
s 18
f 92/115/178 7/7/177 91/114/238 113/143/239
s 6
f 115/145/240 94/117/186 92/115/185 113/143/237
s 19
f 93/116/182 116/146/241 114/144/242 86/109/183
s 22
f 117/147/243 99/123/200 94/117/199 115/145/244
s 9
f 103/128/210 99/123/209 117/147/245 118/148/246
f 119/149/247 116/146/248 93/116/213 104/129/212
s 1
f 107/132/216 120/150/249 106/131/215 77/99/153
f 109/135/218 121/151/250 107/132/216 78/100/154
s 3
f 122/152/251 111/140/227 103/139/226 118/153/252
s 1
f 122/154/253 121/151/250 109/135/218 111/141/228
f 120/150/249 123/155/254 112/142/229 106/131/215
s 24
f 119/149/255 104/129/230 112/142/231 123/155/256
s 6
f 124/156/257 115/145/240 113/143/237 114/144/236
s 22
f 125/157/258 117/147/243 115/145/244 124/156/259
s 19
f 116/146/241 125/157/260 124/156/261 114/144/242
s 9
f 118/148/246 117/147/245 125/157/262 126/158/263
f 127/159/264 125/157/262 116/146/248 119/149/247
s 1
f 121/151/250 128/160/265 120/150/249 107/132/216
s 3
f 129/161/266 122/152/251 118/153/252 126/162/267
s 9
f 126/158/263 125/157/262 127/159/264 130/163/268
s 1
f 129/164/269 128/160/265 121/151/250 122/154/253
f 128/160/265 131/165/270 123/155/254 120/150/249
s 24
f 127/159/271 119/149/255 123/155/256 131/165/272
s 3
f 132/166/273 129/161/266 126/162/267 130/167/274
s 1
f 132/168/275 131/165/270 128/160/265 129/164/269
s 24
f 130/163/276 127/159/271 131/165/272 132/168/277
s off
f 64/75/278 67/80/279 68/82/280 71/86/281 66/93/282 72/87/283 30/34/284
