# This file uses centimeters as units for non-parametric coordinates.

mtllib MouseCityFk.mtl
g default
v 1.436110 0.000000 -4.898105
v -2.562940 0.000000 -4.259820
v -6.019230 0.000000 -1.259447
v -8.177240 0.000000 1.480401
v -6.379622 0.000000 4.515510
v -0.752295 0.000000 4.936691
v 8.435533 0.000000 -1.029317
v 2.921099 0.000000 -4.285872
v -4.643053 0.000000 -2.454094
v -2.664752 0.000000 -0.955186
v -2.362877 0.000000 -1.837590
v -1.474667 0.000000 -2.319429
v -0.551625 0.000000 -1.976917
v -0.220724 0.000000 -1.367361
v -0.301998 0.000000 -0.490762
v 1.279099 0.000000 0.661430
v 2.371990 0.000000 -0.053469
v 3.607688 0.000000 2.105587
v -1.141540 0.000000 0.110939
v -2.265628 0.000000 0.021902
v -3.570843 0.000000 4.725735
v -2.982569 0.000000 1.497741
v 1.436110 0.774479 -4.898105
v -2.562940 0.774479 -4.259820
v -4.643053 0.774479 -2.454094
v 2.921099 0.774479 -4.285872
v 3.607688 0.774479 2.105587
v 8.435533 0.774479 -1.029317
v -3.570843 0.774479 4.725735
v -0.752295 0.774479 4.936691
v -6.019230 0.774479 -1.259447
v -8.177240 0.774479 1.480401
v -6.379622 0.774479 4.515510
v 1.767550 -0.000000 -7.732971
v -3.768579 -0.000000 -6.843592
v -3.768579 0.774479 -6.843592
v 1.767550 0.774479 -7.732971
v -6.586954 -0.000000 -4.693378
v -6.586954 0.774479 -4.693378
v 4.240162 -0.000000 -6.933271
v 4.240162 0.774479 -6.933271
v 5.222598 0.000000 4.592596
v 9.996922 -0.000000 -1.062476
v 9.996922 0.774479 -1.062476
v 5.222598 0.774479 4.592596
v -3.792166 -0.000000 7.682788
v -0.055502 0.000000 7.658722
v -0.055502 0.774479 7.658722
v -3.792166 0.774479 7.682788
v -8.155935 -0.000000 -3.296495
v -8.155935 0.774479 -3.296495
v -10.617695 0.000000 1.318560
v -10.617695 0.774479 1.318560
v -7.765982 0.000000 6.749601
v -7.765982 0.774479 6.749601
vt 0.375113 0.000000
vt 0.293573 0.049917
vt 0.361127 0.317495
vt 0.432071 0.349263
vt 0.518622 0.242746
vt 0.505621 0.191984
vt 0.519352 0.153052
vt 0.570392 0.124261
vt 0.627120 0.144249
vt 0.653141 0.193283
vt 0.755359 0.086621
vt 0.616155 0.000000
vt 0.000000 0.293062
vt 0.313178 0.432031
vt 0.596006 0.557533
vt 0.759694 0.518692
vt 0.694833 0.334478
vt 0.638848 0.254458
vt 0.573612 0.270236
vt 0.922814 0.479985
vt 1.000000 0.284725
vt 0.847454 0.143929
vt 0.375113 0.000000
vt 0.616155 0.000000
vt 0.616155 0.000000
vt 0.375113 0.000000
vt 0.755359 0.086621
vt 0.755359 0.086621
vt 0.293573 0.049917
vt 0.293573 0.049917
vt 0.313178 0.432031
vt 0.000000 0.293062
vt 0.000000 0.293062
vt 0.313178 0.432031
vt 0.759694 0.518692
vt 0.596006 0.557533
vt 0.596006 0.557533
vt 0.759694 0.518692
vt 0.847454 0.143929
vt 0.847454 0.143929
vt 1.000000 0.284725
vt 1.000000 0.284725
vt 0.922814 0.479985
vt 0.922814 0.479985
vt 0.375113 0.000000
vt 0.616155 0.000000
vt 0.616155 0.000000
vt 0.375113 0.000000
vt 0.755359 0.086621
vt 0.755359 0.086621
vt 0.293573 0.049917
vt 0.293573 0.049917
vt 0.313178 0.432031
vt 0.000000 0.293062
vt 0.000000 0.293062
vt 0.313178 0.432031
vt 0.759694 0.518692
vt 0.596006 0.557533
vt 0.596006 0.557533
vt 0.759694 0.518692
vt 0.847454 0.143929
vt 0.847454 0.143929
vt 1.000000 0.284725
vt 1.000000 0.284725
vt 0.922814 0.479985
vt 0.922814 0.479985
vn 0.000000 -1.000000 0.000000
vn -0.000000 -1.000000 0.000000
vn 0.000000 -1.000000 0.000000
vn 0.000000 -1.000000 0.000000
vn 0.000000 -1.000000 0.000000
vn 0.000000 -1.000000 0.000000
vn 0.000000 -1.000000 0.000000
vn 0.000000 -1.000000 0.000000
vn 0.000000 -1.000000 0.000000
vn 0.000000 -1.000000 0.000000
vn 0.000000 -1.000000 0.000000
vn 0.000000 -1.000000 0.000000
vn -0.000000 -1.000000 0.000000
vn -0.000000 -1.000000 0.000000
vn 0.000000 -1.000000 0.000000
vn 0.000000 -1.000000 0.000000
vn 0.000000 -1.000000 0.000000
vn 0.000000 -1.000000 0.000000
vn 0.000000 -1.000000 0.000000
vn -0.000000 -1.000000 0.000000
vn -0.000000 -1.000000 0.000000
vn -0.000000 -1.000000 0.000000
vn -0.158616 0.000000 -0.987340
vn -0.158616 0.000000 -0.987340
vn -0.158616 0.000000 -0.987340
vn -0.158616 0.000000 -0.987340
vn -0.606557 0.000000 -0.795040
vn -0.606557 0.000000 -0.795040
vn -0.606557 0.000000 -0.795040
vn -0.606557 0.000000 -0.795040
vn 0.307729 0.000000 -0.951474
vn 0.307729 0.000000 -0.951474
vn 0.307729 0.000000 -0.951474
vn 0.307729 0.000000 -0.951474
vn 0.764101 0.000000 0.645096
vn 0.764101 0.000000 0.645096
vn 0.764101 0.000000 0.645096
vn 0.764101 0.000000 0.645096
vn 0.714007 0.000000 -0.700138
vn 0.714007 0.000000 -0.700138
vn 0.714007 0.000000 -0.700138
vn 0.714007 0.000000 -0.700138
vn 0.006440 0.000000 0.999979
vn 0.006440 0.000000 0.999979
vn 0.006440 0.000000 0.999979
vn 0.006440 0.000000 0.999979
vn 0.502310 0.000000 0.864688
vn 0.502310 0.000000 0.864688
vn 0.502310 0.000000 0.864688
vn 0.502310 0.000000 0.864688
vn -0.664957 0.000000 -0.746881
vn -0.664957 0.000000 -0.746881
vn -0.664957 0.000000 -0.746881
vn -0.664957 0.000000 -0.746881
vn -0.882321 0.000000 -0.470647
vn -0.882321 0.000000 -0.470647
vn -0.882321 0.000000 -0.470647
vn -0.882321 0.000000 -0.470647
vn -0.885370 0.000000 0.464887
vn -0.885370 0.000000 0.464887
vn -0.885370 0.000000 0.464887
vn -0.885370 0.000000 0.464887
vn -0.228615 0.000000 0.973517
vn -0.228615 0.000000 0.973517
vn -0.228615 0.000000 0.973517
vn -0.228615 0.000000 0.973517
vn 0.000000 -1.000000 0.000000
vn 0.000000 -1.000000 0.000000
vn 0.000000 1.000000 0.000000
vn 0.000000 1.000000 0.000000
vn 0.000000 1.000000 0.000000
vn 0.000000 1.000000 -0.000000
vn 0.000000 -1.000000 0.000000
vn 0.000000 1.000000 -0.000000
vn 0.000000 1.000000 -0.000000
vn -0.000000 -1.000000 0.000000
vn 0.000000 1.000000 0.000000
vn 0.000000 1.000000 0.000000
vn -0.000000 -1.000000 0.000000
vn -0.000000 -1.000000 0.000000
vn 0.000000 1.000000 -0.000000
vn 0.000000 1.000000 -0.000000
vn 0.000000 1.000000 -0.000000
vn 0.000000 1.000000 -0.000000
vn 0.000000 -1.000000 0.000000
vn 0.000000 -1.000000 0.000000
vn 0.000000 1.000000 -0.000000
vn 0.000000 1.000000 0.000000
vn 0.000000 1.000000 0.000000
vn 0.000000 1.000000 -0.000000
vn 0.000000 -1.000000 0.000000
vn 0.000000 1.000000 -0.000000
vn 0.000000 1.000000 -0.000000
vn -0.000000 -1.000000 0.000000
vn 0.000000 1.000000 -0.000000
vn 0.000000 1.000000 -0.000000
vn -0.000000 -1.000000 0.000000
vn 0.000000 1.000000 -0.000000
vn 0.000000 1.000000 -0.000000
s 1
g polySurface3 polySurface1
usemtl initialShadingGroup
f 1/1/1 8/2/2 17/3/3 16/4/4 15/5/5 14/6/6 13/7/7 12/8/8 11/9/9 10/10/10 9/11/11 2/12/12
f 8/2/2 7/13/13 18/14/14 17/3/3
f 18/14/14 6/15/15 21/16/16 22/17/17 20/18/18 19/19/19 15/5/5 16/4/4 17/3/3
f 10/10/10 11/9/9 12/8/8 13/7/7 14/6/6 15/5/5 19/19/19 20/18/18
f 21/16/16 5/20/20 4/21/21 3/22/22 9/11/11 10/10/10 20/18/18 22/17/17
s off
f 34/23/23 35/24/24 36/25/25 37/26/26
f 35/24/27 38/27/28 39/28/29 36/25/30
f 40/29/31 34/23/32 37/26/33 41/30/34
f 42/31/35 43/32/36 44/33/37 45/34/38
f 43/32/39 40/29/40 41/30/41 44/33/42
f 46/35/43 47/36/44 48/37/45 49/38/46
f 47/36/47 42/31/48 45/34/49 48/37/50
f 38/27/51 50/39/52 51/40/53 39/28/54
f 50/39/55 52/41/56 53/42/57 51/40/58
f 52/41/59 54/43/60 55/44/61 53/42/62
f 54/43/63 46/35/64 49/38/65 55/44/66
s 1
f 1/45/1 2/46/12 35/24/67 34/23/68
s 2
f 24/47/69 23/48/70 37/26/71 36/25/72
s 1
f 2/46/12 9/49/11 38/27/73 35/24/67
s 2
f 25/50/74 24/47/69 36/25/72 39/28/75
s 1
f 8/51/2 1/45/1 34/23/68 40/29/76
s 2
f 23/48/70 26/52/77 41/30/78 37/26/71
s 1
f 18/53/14 7/54/13 43/32/79 42/31/80
s 2
f 28/55/81 27/56/82 45/34/83 44/33/84
s 1
f 7/54/13 8/51/2 40/29/76 43/32/79
s 2
f 26/52/77 28/55/81 44/33/84 41/30/78
s 1
f 21/57/16 6/58/15 47/36/85 46/35/86
s 2
f 30/59/87 29/60/88 49/38/89 48/37/90
s 1
f 6/58/15 18/53/14 42/31/80 47/36/85
s 2
f 27/56/82 30/59/87 48/37/90 45/34/83
s 1
f 9/49/11 3/61/22 50/39/91 38/27/73
s 2
f 31/62/92 25/50/74 39/28/75 51/40/93
s 1
f 3/61/22 4/63/21 52/41/94 50/39/91
s 2
f 32/64/95 31/62/92 51/40/93 53/42/96
s 1
f 4/63/21 5/65/20 54/43/97 52/41/94
s 2
f 33/66/98 32/64/95 53/42/96 55/44/99
s 1
f 5/65/20 21/57/16 46/35/86 54/43/97
s 2
f 29/60/88 33/66/98 55/44/99 49/38/89
g default
v 2.371990 0.774479 -0.053469
v 2.921099 0.774478 -4.285872
v 3.607688 0.774478 2.105587
v 8.435533 0.774478 -1.029317
vt 0.293573 0.049917
vt 0.361127 0.317495
vt 0.313178 0.432031
vt 0.000000 0.293062
vn 0.000000 1.000000 0.000000
vn 0.000000 1.000000 0.000000
vn 0.000000 1.000000 0.000000
vn 0.000000 1.000000 0.000000
s off
g polySurface1 polySurface5 polySurface2
usemtl initialShadingGroup
f 57/67/100 56/68/101 58/69/102 59/70/103
g default
v 1.436110 0.774478 -4.898105
v -2.562940 0.774478 -4.259820
v 2.921099 0.774478 -4.285872
v -4.643053 0.774478 -2.454094
v -2.664752 0.774479 -0.955186
v -2.362877 0.774479 -1.837590
v -1.474667 0.774479 -2.319429
v -0.551625 0.774479 -1.976917
v -0.220724 0.774479 -1.367361
v -0.301998 0.774479 -0.490762
v 1.279099 0.774479 0.661430
v 2.371990 0.774479 -0.053469
vt 0.375113 0.000000
vt 0.616155 0.000000
vt 0.755359 0.086621
vt 0.653141 0.193283
vt 0.627120 0.144249
vt 0.570392 0.124261
vt 0.519352 0.153052
vt 0.505621 0.191984
vt 0.518622 0.242746
vt 0.432071 0.349263
vt 0.361127 0.317495
vt 0.293573 0.049917
vn -0.000000 1.000000 -0.000000
vn -0.000000 1.000000 -0.000000
vn -0.000000 1.000000 -0.000000
vn -0.000000 1.000000 -0.000000
vn -0.000000 1.000000 -0.000000
vn -0.000000 1.000000 -0.000000
vn -0.000000 1.000000 -0.000000
vn -0.000000 1.000000 -0.000000
vn -0.000000 1.000000 -0.000000
vn -0.000000 1.000000 -0.000000
vn -0.000000 1.000000 -0.000000
vn -0.000000 1.000000 -0.000000
s off
g polySurface1 polySurface2 polySurface6 polySurface4
usemtl initialShadingGroup
f 60/71/104 61/72/105 63/73/106 64/74/107 65/75/108 66/76/109 67/77/110 68/78/111 69/79/112 70/80/113 71/81/114 62/82/115
g default
v -2.664752 0.774479 -0.955186
v -2.362877 0.774479 -1.837590
v -1.474667 0.774479 -2.319429
v -0.551625 0.774479 -1.976917
v -0.220724 0.774479 -1.367361
v -0.301998 0.774479 -0.490762
v -1.141540 0.774479 0.110939
v -2.265628 0.774479 0.021902
vt 0.653141 0.193283
vt 0.638848 0.254458
vt 0.573612 0.270236
vt 0.518622 0.242746
vt 0.505621 0.191984
vt 0.519352 0.153052
vt 0.570392 0.124261
vt 0.627120 0.144249
vn 0.000000 1.000000 0.000000
vn 0.000000 1.000000 0.000000
vn 0.000000 1.000000 0.000000
vn 0.000000 1.000000 0.000000
vn 0.000000 1.000000 0.000000
vn 0.000000 1.000000 0.000000
vn 0.000000 1.000000 0.000000
vn 0.000000 1.000000 0.000000
s off
g polySurface1 polySurface2 polySurface4 polySurface9 polySurface7
usemtl initialShadingGroup
f 72/83/116 79/84/117 78/85/118 77/86/119 76/87/120 75/88/121 74/89/122 73/90/123
g default
v 1.279099 0.774479 0.661430
v -0.752295 0.774478 4.936691
v 2.371990 0.774479 -0.053469
v 3.607688 0.774478 2.105587
v -0.301998 0.774479 -0.490762
v -1.141540 0.774479 0.110939
v -2.265628 0.774479 0.021902
v -2.982569 0.774479 1.497741
v -3.570843 0.774478 4.725735
vt 0.313178 0.432031
vt 0.361127 0.317495
vt 0.432071 0.349263
vt 0.518622 0.242746
vt 0.573612 0.270236
vt 0.638848 0.254458
vt 0.694833 0.334478
vt 0.759694 0.518692
vt 0.596006 0.557533
vn 0.000000 1.000000 0.000000
vn 0.000000 1.000000 0.000000
vn 0.000000 1.000000 0.000000
vn 0.000000 1.000000 0.000000
vn 0.000000 1.000000 0.000000
vn 0.000000 1.000000 0.000000
vn 0.000000 1.000000 0.000000
vn 0.000000 1.000000 0.000000
vn 0.000000 1.000000 0.000000
s off
g polySurface1 polySurface2 polySurface4 polySurface7 polySurface10 polySurface8
usemtl initialShadingGroup
f 83/91/124 82/92/125 80/93/126 84/94/127 85/95/128 86/96/129 87/97/130 88/98/131 81/99/132
g default
v -2.982569 0.774479 1.497741
v -4.643053 0.774478 -2.454094
v -6.019230 0.774478 -1.259447
v -8.177240 0.774478 1.480401
v -6.379622 0.774478 4.515510
v -3.570843 0.774478 4.725735
v -2.265628 0.774479 0.021902
v -2.664752 0.774479 -0.955186
vt 0.759694 0.518692
vt 0.694833 0.334478
vt 0.638848 0.254458
vt 0.653141 0.193283
vt 0.755359 0.086621
vt 0.847454 0.143929
vt 1.000000 0.284725
vt 0.922814 0.479985
vn -0.000000 1.000000 0.000000
vn -0.000000 1.000000 0.000000
vn -0.000000 1.000000 0.000000
vn -0.000000 1.000000 0.000000
vn -0.000000 1.000000 0.000000
vn -0.000000 1.000000 0.000000
vn -0.000000 1.000000 0.000000
vn -0.000000 1.000000 0.000000
s off
g polySurface1 polySurface2 polySurface4 polySurface7 polySurface8 polySurface11
usemtl initialShadingGroup
f 94/100/133 89/101/134 95/102/135 96/103/136 90/104/137 91/105/138 92/106/139 93/107/140
